<?xml version="1.0" encoding="UTF-8" standalone="no"?>
<!DOCTYPE svg PUBLIC "-//W3C//DTD SVG 1.1//EN"
 "http://www.w3.org/Graphics/SVG/1.1/DTD/svg11.dtd">
<!-- Generated by graphviz version 2.47.0 (20210316.0004)
 -->
<!-- Title: dependencies Pages: 1 -->
<svg width="3517pt" height="428pt"
 viewBox="0.00 0.00 3517.00 428.00" xmlns="http://www.w3.org/2000/svg" xmlns:xlink="http://www.w3.org/1999/xlink">
<g id="graph0" class="graph" transform="scale(1 1) rotate(0) translate(4 424)">
<title>dependencies</title>
<polygon fill="white" stroke="transparent" points="-4,4 -4,-424 3513,-424 3513,4 -4,4"/>
<text text-anchor="start" x="1733.51" y="-42.4" font-family="Times-12" font-weight="bold" font-size="14.00">Legend</text>
<polygon fill="#ffffb3" stroke="transparent" points="1520.5,-10 1520.5,-30 1540.5,-30 1540.5,-10 1520.5,-10"/>
<text text-anchor="start" x="1544.13" y="-15.4" font-family="Times-12" font-size="14.00"> &#160;Declarations</text>
<polygon fill="#8dd3c7" stroke="transparent" points="1633.5,-10 1633.5,-30 1653.5,-30 1653.5,-10 1633.5,-10"/>
<text text-anchor="start" x="1657.23" y="-15.4" font-family="Times-12" font-size="14.00"> &#160;Module</text>
<polygon fill="#80b1d3" stroke="transparent" points="1719.5,-10 1719.5,-30 1739.5,-30 1739.5,-10 1719.5,-10"/>
<text text-anchor="start" x="1743.28" y="-15.4" font-family="Times-12" font-size="14.00"> &#160;Bootstrap</text>
<polygon fill="#fdb462" stroke="transparent" points="1816.5,-10 1816.5,-30 1836.5,-30 1836.5,-10 1816.5,-10"/>
<text text-anchor="start" x="1840.17" y="-15.4" font-family="Times-12" font-size="14.00"> &#160;Providers</text>
<polygon fill="#fb8072" stroke="transparent" points="1912.5,-10 1912.5,-30 1932.5,-30 1932.5,-10 1912.5,-10"/>
<text text-anchor="start" x="1936.23" y="-15.4" font-family="Times-12" font-size="14.00"> &#160;Exports</text>
<g id="clust1" class="cluster">
<title>cluster_AppModule</title>
<polygon fill="none" stroke="black" stroke-dasharray="1,5" points="8,-146 8,-412 1378,-412 1378,-146 8,-146"/>
</g>
<g id="clust2" class="cluster">
<title>cluster_AppModule_declarations</title>
<polygon fill="none" stroke="black" points="920,-222 920,-274 1370,-274 1370,-222 920,-222"/>
</g>
<g id="clust6" class="cluster">
<title>cluster_AppModule_imports</title>
<polygon fill="none" stroke="black" points="486,-154 486,-274 912,-274 912,-154 486,-154"/>
</g>
<g id="clust8" class="cluster">
<title>cluster_AppModule_bootstrap</title>
<polygon fill="none" stroke="black" points="667,-352 667,-404 791,-404 791,-352 667,-352"/>
</g>
<g id="clust9" class="cluster">
<title>cluster_AppModule_providers</title>
<polygon fill="none" stroke="black" points="16,-222 16,-274 478,-274 478,-222 16,-222"/>
</g>
<g id="clust16" class="cluster">
<title>cluster_AuthenticationModule</title>
<polygon fill="none" stroke="black" stroke-dasharray="1,5" points="101,-70 101,-138 247,-138 247,-70 101,-70"/>
</g>
<g id="clust17" class="cluster">
<title>cluster_AuthenticationModule_declarations</title>
<polygon fill="none" stroke="black" points="109,-78 109,-130 239,-130 239,-78 109,-78"/>
</g>
<g id="clust23" class="cluster">
<title>cluster_DashboardModule</title>
<polygon fill="none" stroke="black" stroke-dasharray="1,5" points="1386,-146 1386,-214 1560,-214 1560,-146 1386,-146"/>
</g>
<g id="clust24" class="cluster">
<title>cluster_DashboardModule_declarations</title>
<polygon fill="none" stroke="black" points="1394,-154 1394,-206 1552,-206 1552,-154 1394,-154"/>
</g>
<g id="clust30" class="cluster">
<title>cluster_DialogsModule</title>
<polygon fill="none" stroke="black" stroke-dasharray="1,5" points="255,-70 255,-138 1273,-138 1273,-70 255,-70"/>
</g>
<g id="clust31" class="cluster">
<title>cluster_DialogsModule_declarations</title>
<polygon fill="none" stroke="black" points="263,-78 263,-130 1265,-130 1265,-78 263,-78"/>
</g>
<g id="clust47" class="cluster">
<title>cluster_ProjectsModule</title>
<polygon fill="none" stroke="black" stroke-dasharray="1,5" points="1568,-70 1568,-206 3501,-206 3501,-70 1568,-70"/>
</g>
<g id="clust48" class="cluster">
<title>cluster_ProjectsModule_declarations</title>
<polygon fill="none" stroke="black" points="1952,-78 1952,-130 3493,-130 3493,-78 1952,-78"/>
</g>
<g id="clust57" class="cluster">
<title>cluster_ProjectsModule_imports</title>
<polygon fill="none" stroke="black" points="1576,-78 1576,-130 1944,-130 1944,-78 1576,-78"/>
</g>
<!-- AppComponent -->
<g id="node1" class="node">
<title>AppComponent</title>
<polygon fill="#ffffb3" stroke="black" points="1361.94,-266 1256.06,-266 1256.06,-230 1361.94,-230 1361.94,-266"/>
<text text-anchor="middle" x="1309" y="-243.8" font-family="Times,serif" font-size="14.00">AppComponent</text>
</g>
<!-- AppModule -->
<g id="node4" class="node">
<title>AppModule</title>
<polygon fill="#8dd3c7" stroke="black" points="770.66,-331 767.66,-335 746.66,-335 743.66,-331 687.34,-331 687.34,-295 770.66,-295 770.66,-331"/>
<text text-anchor="middle" x="729" y="-308.8" font-family="Times,serif" font-size="14.00">AppModule</text>
</g>
<!-- AppComponent&#45;&gt;AppModule -->
<g id="edge1" class="edge">
<title>AppComponent&#45;&gt;AppModule</title>
<path fill="none" stroke="black" d="M1309,-266.29C1309,-288.21 1309,-322 1309,-322 1309,-322 780.71,-322 780.71,-322"/>
<polygon fill="black" stroke="black" points="780.71,-318.5 770.71,-322 780.71,-325.5 780.71,-318.5"/>
</g>
<!-- ProjectSearchComponent -->
<g id="node2" class="node">
<title>ProjectSearchComponent</title>
<polygon fill="#ffffb3" stroke="black" points="1238.57,-266 1079.43,-266 1079.43,-230 1238.57,-230 1238.57,-266"/>
<text text-anchor="middle" x="1159" y="-243.8" font-family="Times,serif" font-size="14.00">ProjectSearchComponent</text>
</g>
<!-- ProjectSearchComponent&#45;&gt;AppModule -->
<g id="edge2" class="edge">
<title>ProjectSearchComponent&#45;&gt;AppModule</title>
<path fill="none" stroke="black" d="M1159,-266.11C1159,-285.34 1159,-313 1159,-313 1159,-313 781.01,-313 781.01,-313"/>
<polygon fill="black" stroke="black" points="781.01,-309.5 771.01,-313 781.01,-316.5 781.01,-309.5"/>
</g>
<!-- SnackbarComponent -->
<g id="node3" class="node">
<title>SnackbarComponent</title>
<polygon fill="#ffffb3" stroke="black" points="1061.92,-266 928.08,-266 928.08,-230 1061.92,-230 1061.92,-266"/>
<text text-anchor="middle" x="995" y="-243.8" font-family="Times,serif" font-size="14.00">SnackbarComponent</text>
</g>
<!-- SnackbarComponent&#45;&gt;AppModule -->
<g id="edge3" class="edge">
<title>SnackbarComponent&#45;&gt;AppModule</title>
<path fill="none" stroke="black" d="M995,-266.03C995,-282.4 995,-304 995,-304 995,-304 780.86,-304 780.86,-304"/>
<polygon fill="black" stroke="black" points="780.86,-300.5 770.86,-304 780.86,-307.5 780.86,-300.5"/>
</g>
<!-- AppComponent  -->
<g id="node9" class="node">
<title>AppComponent </title>
<polygon fill="#80b1d3" stroke="black" points="783.44,-396 674.56,-396 674.56,-360 783.44,-360 783.44,-396"/>
<text text-anchor="middle" x="729" y="-373.8" font-family="Times,serif" font-size="14.00">AppComponent </text>
</g>
<!-- AppModule&#45;&gt;AppComponent  -->
<g id="edge8" class="edge">
<title>AppModule&#45;&gt;AppComponent </title>
<path fill="none" stroke="black" stroke-dasharray="1,5" d="M729,-331.11C729,-331.11 729,-349.99 729,-349.99"/>
<polygon fill="black" stroke="black" points="725.5,-349.99 729,-359.99 732.5,-349.99 725.5,-349.99"/>
</g>
<!-- AppRoutingModule -->
<g id="node5" class="node">
<title>AppRoutingModule</title>
<polygon fill="#8dd3c7" stroke="black" points="904.27,-198 901.27,-202 880.27,-202 877.27,-198 775.73,-198 775.73,-162 904.27,-162 904.27,-198"/>
<text text-anchor="middle" x="840" y="-175.8" font-family="Times,serif" font-size="14.00">AppRoutingModule</text>
</g>
<!-- AppRoutingModule&#45;&gt;AppModule -->
<g id="edge4" class="edge">
<title>AppRoutingModule&#45;&gt;AppModule</title>
<path fill="none" stroke="black" d="M775.57,-180C767.48,-180 761.98,-180 761.98,-180 761.98,-180 761.98,-284.79 761.98,-284.79"/>
<polygon fill="black" stroke="black" points="758.48,-284.79 761.98,-294.79 765.48,-284.79 758.48,-284.79"/>
</g>
<!-- DashboardModule -->
<g id="node7" class="node">
<title>DashboardModule</title>
<polygon fill="#8dd3c7" stroke="black" points="900.19,-266 897.19,-270 876.19,-270 873.19,-266 779.81,-266 779.81,-230 900.19,-230 900.19,-266"/>
<text text-anchor="middle" x="840" y="-243.8" font-family="Times,serif" font-size="14.00">DashboardModule</text>
</g>
<!-- AppRoutingModule&#45;&gt;DashboardModule -->
<g id="edge14" class="edge">
<title>AppRoutingModule&#45;&gt;DashboardModule</title>
<path fill="none" stroke="black" d="M840,-198.22C840,-198.22 840,-219.73 840,-219.73"/>
<polygon fill="black" stroke="black" points="836.5,-219.73 840,-229.73 843.5,-219.73 836.5,-219.73"/>
</g>
<!-- AuthenticationModule -->
<g id="node6" class="node">
<title>AuthenticationModule</title>
<polygon fill="#8dd3c7" stroke="black" points="636.25,-198 633.25,-202 612.25,-202 609.25,-198 493.75,-198 493.75,-162 636.25,-162 636.25,-198"/>
<text text-anchor="middle" x="565" y="-175.8" font-family="Times,serif" font-size="14.00">AuthenticationModule</text>
</g>
<!-- AuthenticationModule&#45;&gt;AppModule -->
<g id="edge5" class="edge">
<title>AuthenticationModule&#45;&gt;AppModule</title>
<path fill="none" stroke="black" d="M565,-198.03C565,-232.42 565,-304 565,-304 565,-304 677.19,-304 677.19,-304"/>
<polygon fill="black" stroke="black" points="677.19,-307.5 687.19,-304 677.19,-300.5 677.19,-307.5"/>
</g>
<!-- DashboardModule&#45;&gt;AppModule -->
<g id="edge6" class="edge">
<title>DashboardModule&#45;&gt;AppModule</title>
<path fill="none" stroke="black" d="M779.9,-254C771.9,-254 766.4,-254 766.4,-254 766.4,-254 766.4,-284.98 766.4,-284.98"/>
<polygon fill="black" stroke="black" points="762.9,-284.98 766.4,-294.98 769.9,-284.98 762.9,-284.98"/>
</g>
<!-- DialogsModule -->
<g id="node8" class="node">
<title>DialogsModule</title>
<polygon fill="#8dd3c7" stroke="black" points="757.6,-198 754.6,-202 733.6,-202 730.6,-198 654.4,-198 654.4,-162 757.6,-162 757.6,-198"/>
<text text-anchor="middle" x="706" y="-175.8" font-family="Times,serif" font-size="14.00">DialogsModule</text>
</g>
<!-- DialogsModule&#45;&gt;AppModule -->
<g id="edge7" class="edge">
<title>DialogsModule&#45;&gt;AppModule</title>
<path fill="none" stroke="black" d="M734.09,-198.21C734.09,-198.21 734.09,-284.58 734.09,-284.58"/>
<polygon fill="black" stroke="black" points="730.59,-284.58 734.09,-294.58 737.59,-284.58 730.59,-284.58"/>
</g>
<!-- AuthInterceptor -->
<g id="node10" class="node">
<title>AuthInterceptor</title>
<ellipse fill="#fdb462" stroke="black" cx="397" cy="-248" rx="72.91" ry="18"/>
<text text-anchor="middle" x="397" y="-243.8" font-family="Times,serif" font-size="14.00">AuthInterceptor</text>
</g>
<!-- AuthInterceptor&#45;&gt;AppModule -->
<g id="edge9" class="edge">
<title>AuthInterceptor&#45;&gt;AppModule</title>
<path fill="none" stroke="black" d="M465.83,-242C558.15,-242 710.63,-242 710.63,-242 710.63,-242 710.63,-284.72 710.63,-284.72"/>
<polygon fill="black" stroke="black" points="707.13,-284.72 710.63,-294.72 714.13,-284.72 707.13,-284.72"/>
</g>
<!-- DataService -->
<g id="node11" class="node">
<title>DataService</title>
<ellipse fill="#fdb462" stroke="black" cx="248" cy="-248" rx="58.44" ry="18"/>
<text text-anchor="middle" x="248" y="-243.8" font-family="Times,serif" font-size="14.00">DataService</text>
</g>
<!-- DataService&#45;&gt;AppModule -->
<g id="edge10" class="edge">
<title>DataService&#45;&gt;AppModule</title>
<path fill="none" stroke="black" d="M248,-266.11C248,-285.34 248,-313 248,-313 248,-313 677.16,-313 677.16,-313"/>
<polygon fill="black" stroke="black" points="677.16,-316.5 687.16,-313 677.16,-309.5 677.16,-316.5"/>
</g>
<!-- ErrorInterceptor -->
<g id="node12" class="node">
<title>ErrorInterceptor</title>
<ellipse fill="#fdb462" stroke="black" cx="98" cy="-248" rx="73.53" ry="18"/>
<text text-anchor="middle" x="98" y="-243.8" font-family="Times,serif" font-size="14.00">ErrorInterceptor</text>
</g>
<!-- ErrorInterceptor&#45;&gt;AppModule -->
<g id="edge11" class="edge">
<title>ErrorInterceptor&#45;&gt;AppModule</title>
<path fill="none" stroke="black" d="M98,-266.29C98,-288.21 98,-322 98,-322 98,-322 677.11,-322 677.11,-322"/>
<polygon fill="black" stroke="black" points="677.11,-325.5 687.11,-322 677.11,-318.5 677.11,-325.5"/>
</g>
<!-- LoginComponent -->
<g id="node13" class="node">
<title>LoginComponent</title>
<polygon fill="#ffffb3" stroke="black" points="231.28,-122 116.72,-122 116.72,-86 231.28,-86 231.28,-122"/>
<text text-anchor="middle" x="174" y="-99.8" font-family="Times,serif" font-size="14.00">LoginComponent</text>
</g>
<!-- LoginComponent&#45;&gt;AuthenticationModule -->
<g id="edge12" class="edge">
<title>LoginComponent&#45;&gt;AuthenticationModule</title>
<path fill="none" stroke="black" d="M210.58,-122.01C210.58,-144.49 210.58,-180 210.58,-180 210.58,-180 483.7,-180 483.7,-180"/>
<polygon fill="black" stroke="black" points="483.7,-183.5 493.7,-180 483.7,-176.5 483.7,-183.5"/>
</g>
<!-- DashboardComponent -->
<g id="node14" class="node">
<title>DashboardComponent</title>
<polygon fill="#ffffb3" stroke="black" points="1543.97,-198 1402.03,-198 1402.03,-162 1543.97,-162 1543.97,-198"/>
<text text-anchor="middle" x="1473" y="-175.8" font-family="Times,serif" font-size="14.00">DashboardComponent</text>
</g>
<!-- DashboardComponent&#45;&gt;DashboardModule -->
<g id="edge13" class="edge">
<title>DashboardComponent&#45;&gt;DashboardModule</title>
<path fill="none" stroke="black" d="M1401.93,-180C1251.86,-180 916.34,-180 916.34,-180 916.34,-180 916.34,-248 916.34,-248 916.34,-248 910.15,-248 910.15,-248"/>
<polygon fill="black" stroke="black" points="910.15,-244.5 900.15,-248 910.15,-251.5 910.15,-244.5"/>
</g>
<!-- AreYouSureDialogComponent -->
<g id="node15" class="node">
<title>AreYouSureDialogComponent</title>
<polygon fill="#ffffb3" stroke="black" points="1257.18,-122 1066.82,-122 1066.82,-86 1257.18,-86 1257.18,-122"/>
<text text-anchor="middle" x="1162" y="-99.8" font-family="Times,serif" font-size="14.00">AreYouSureDialogComponent</text>
</g>
<!-- AreYouSureDialogComponent&#45;&gt;DialogsModule -->
<g id="edge15" class="edge">
<title>AreYouSureDialogComponent&#45;&gt;DialogsModule</title>
<path fill="none" stroke="black" d="M1073.19,-122.15C1073.19,-135.74 1073.19,-152 1073.19,-152 1073.19,-152 754.87,-152 754.87,-152 754.87,-152 754.87,-152.98 754.87,-152.98"/>
<polygon fill="black" stroke="black" points="751.37,-151.79 754.87,-161.79 758.37,-151.79 751.37,-151.79"/>
</g>
<!-- IssueDetailDialogComponent -->
<g id="node16" class="node">
<title>IssueDetailDialogComponent</title>
<polygon fill="#ffffb3" stroke="black" points="1049.41,-122 866.59,-122 866.59,-86 1049.41,-86 1049.41,-122"/>
<text text-anchor="middle" x="958" y="-99.8" font-family="Times,serif" font-size="14.00">IssueDetailDialogComponent</text>
</g>
<!-- IssueDetailDialogComponent&#45;&gt;DialogsModule -->
<g id="edge16" class="edge">
<title>IssueDetailDialogComponent&#45;&gt;DialogsModule</title>
<path fill="none" stroke="black" d="M885.59,-122.11C885.59,-131.9 885.59,-142 885.59,-142 885.59,-142 752.2,-142 752.2,-142 752.2,-142 752.2,-151.89 752.2,-151.89"/>
<polygon fill="black" stroke="black" points="748.7,-151.89 752.2,-161.89 755.7,-151.89 748.7,-151.89"/>
</g>
<!-- MarkdownPipe -->
<g id="node17" class="node">
<title>MarkdownPipe</title>
<polygon fill="#ffffb3" stroke="black" points="849.31,-122 746.69,-122 746.69,-86 849.31,-86 849.31,-122"/>
<text text-anchor="middle" x="798" y="-99.8" font-family="Times,serif" font-size="14.00">MarkdownPipe</text>
</g>
<!-- MarkdownPipe&#45;&gt;DialogsModule -->
<g id="edge17" class="edge">
<title>MarkdownPipe&#45;&gt;DialogsModule</title>
<path fill="none" stroke="black" d="M749.52,-122.01C749.52,-122.01 749.52,-151.85 749.52,-151.85"/>
<polygon fill="black" stroke="black" points="746.02,-151.85 749.52,-161.85 753.02,-151.85 746.02,-151.85"/>
</g>
<!-- NodeBacklogDetailDialogComponent -->
<g id="node18" class="node">
<title>NodeBacklogDetailDialogComponent</title>
<polygon fill="#ffffb3" stroke="black" points="729.12,-122 498.88,-122 498.88,-86 729.12,-86 729.12,-122"/>
<text text-anchor="middle" x="614" y="-99.8" font-family="Times,serif" font-size="14.00">NodeBacklogDetailDialogComponent</text>
</g>
<!-- NodeBacklogDetailDialogComponent&#45;&gt;DialogsModule -->
<g id="edge18" class="edge">
<title>NodeBacklogDetailDialogComponent&#45;&gt;DialogsModule</title>
<path fill="none" stroke="black" d="M704.36,-122.01C704.36,-122.01 704.36,-151.85 704.36,-151.85"/>
<polygon fill="black" stroke="black" points="700.86,-151.85 704.36,-161.85 707.86,-151.85 700.86,-151.85"/>
</g>
<!-- NodeTreeDetailDialogComponent -->
<g id="node19" class="node">
<title>NodeTreeDetailDialogComponent</title>
<polygon fill="#ffffb3" stroke="black" points="480.61,-122 271.39,-122 271.39,-86 480.61,-86 480.61,-122"/>
<text text-anchor="middle" x="376" y="-99.8" font-family="Times,serif" font-size="14.00">NodeTreeDetailDialogComponent</text>
</g>
<!-- NodeTreeDetailDialogComponent&#45;&gt;DialogsModule -->
<g id="edge19" class="edge">
<title>NodeTreeDetailDialogComponent&#45;&gt;DialogsModule</title>
<path fill="none" stroke="black" d="M475.25,-122.21C475.25,-127.55 475.25,-132 475.25,-132 475.25,-132 679.4,-132 679.4,-132 679.4,-132 679.4,-151.85 679.4,-151.85"/>
<polygon fill="black" stroke="black" points="675.9,-151.85 679.4,-161.85 682.9,-151.85 675.9,-151.85"/>
</g>
<!-- CreateProjectComponent -->
<g id="node20" class="node">
<title>CreateProjectComponent</title>
<polygon fill="#ffffb3" stroke="black" points="3484.52,-122 3327.48,-122 3327.48,-86 3484.52,-86 3484.52,-122"/>
<text text-anchor="middle" x="3406" y="-99.8" font-family="Times,serif" font-size="14.00">CreateProjectComponent</text>
</g>
<!-- ProjectsModule -->
<g id="node28" class="node">
<title>ProjectsModule</title>
<polygon fill="#8dd3c7" stroke="black" points="2559.15,-198 2556.15,-202 2535.15,-202 2532.15,-198 2454.85,-198 2454.85,-162 2559.15,-162 2559.15,-198"/>
<text text-anchor="middle" x="2507" y="-175.8" font-family="Times,serif" font-size="14.00">ProjectsModule</text>
</g>
<!-- CreateProjectComponent&#45;&gt;ProjectsModule -->
<g id="edge20" class="edge">
<title>CreateProjectComponent&#45;&gt;ProjectsModule</title>
<path fill="none" stroke="black" d="M3406,-122.03C3406,-147.51 3406,-191 3406,-191 3406,-191 2569.22,-191 2569.22,-191"/>
<polygon fill="black" stroke="black" points="2569.22,-187.5 2559.22,-191 2569.22,-194.5 2569.22,-187.5"/>
</g>
<!-- ProjectConfigViewComponent -->
<g id="node21" class="node">
<title>ProjectConfigViewComponent</title>
<polygon fill="#ffffb3" stroke="black" points="3309.19,-122 3118.81,-122 3118.81,-86 3309.19,-86 3309.19,-122"/>
<text text-anchor="middle" x="3214" y="-99.8" font-family="Times,serif" font-size="14.00">ProjectConfigViewComponent</text>
</g>
<!-- ProjectConfigViewComponent&#45;&gt;ProjectsModule -->
<g id="edge21" class="edge">
<title>ProjectConfigViewComponent&#45;&gt;ProjectsModule</title>
<path fill="none" stroke="black" d="M3214,-122.15C3214,-145.76 3214,-184 3214,-184 3214,-184 2569.27,-184 2569.27,-184"/>
<polygon fill="black" stroke="black" points="2569.27,-180.5 2559.27,-184 2569.27,-187.5 2569.27,-180.5"/>
</g>
<!-- ProjectDashboardComponent -->
<g id="node22" class="node">
<title>ProjectDashboardComponent</title>
<polygon fill="#ffffb3" stroke="black" points="3100.63,-122 2919.37,-122 2919.37,-86 3100.63,-86 3100.63,-122"/>
<text text-anchor="middle" x="3010" y="-99.8" font-family="Times,serif" font-size="14.00">ProjectDashboardComponent</text>
</g>
<!-- ProjectDashboardComponent&#45;&gt;ProjectsModule -->
<g id="edge22" class="edge">
<title>ProjectDashboardComponent&#45;&gt;ProjectsModule</title>
<path fill="none" stroke="black" d="M3010,-122.04C3010,-143.66 3010,-177 3010,-177 3010,-177 2569.41,-177 2569.41,-177"/>
<polygon fill="black" stroke="black" points="2569.41,-173.5 2559.41,-177 2569.41,-180.5 2569.41,-173.5"/>
</g>
<!-- ProjectItemOptionsComponent -->
<g id="node23" class="node">
<title>ProjectItemOptionsComponent</title>
<polygon fill="#ffffb3" stroke="black" points="2901.47,-122 2710.53,-122 2710.53,-86 2901.47,-86 2901.47,-122"/>
<text text-anchor="middle" x="2806" y="-99.8" font-family="Times,serif" font-size="14.00">ProjectItemOptionsComponent</text>
</g>
<!-- ProjectItemOptionsComponent&#45;&gt;ProjectsModule -->
<g id="edge23" class="edge">
<title>ProjectItemOptionsComponent&#45;&gt;ProjectsModule</title>
<path fill="none" stroke="black" d="M2806,-122.03C2806,-141.58 2806,-170 2806,-170 2806,-170 2569.42,-170 2569.42,-170"/>
<polygon fill="black" stroke="black" points="2569.42,-166.5 2559.42,-170 2569.42,-173.5 2569.42,-166.5"/>
</g>
<!-- ProjectItemViewComponent -->
<g id="node24" class="node">
<title>ProjectItemViewComponent</title>
<polygon fill="#ffffb3" stroke="black" points="2692.46,-122 2515.54,-122 2515.54,-86 2692.46,-86 2692.46,-122"/>
<text text-anchor="middle" x="2604" y="-99.8" font-family="Times,serif" font-size="14.00">ProjectItemViewComponent</text>
</g>
<!-- ProjectItemViewComponent&#45;&gt;ProjectsModule -->
<g id="edge24" class="edge">
<title>ProjectItemViewComponent&#45;&gt;ProjectsModule</title>
<path fill="none" stroke="black" d="M2537.42,-122.01C2537.42,-122.01 2537.42,-151.85 2537.42,-151.85"/>
<polygon fill="black" stroke="black" points="2533.92,-151.85 2537.42,-161.85 2540.92,-151.85 2533.92,-151.85"/>
</g>
<!-- ProjectListViewComponent -->
<g id="node25" class="node">
<title>ProjectListViewComponent</title>
<polygon fill="#ffffb3" stroke="black" points="2497.58,-122 2324.42,-122 2324.42,-86 2497.58,-86 2497.58,-122"/>
<text text-anchor="middle" x="2411" y="-99.8" font-family="Times,serif" font-size="14.00">ProjectListViewComponent</text>
</g>
<!-- ProjectListViewComponent&#45;&gt;ProjectsModule -->
<g id="edge25" class="edge">
<title>ProjectListViewComponent&#45;&gt;ProjectsModule</title>
<path fill="none" stroke="black" d="M2476.11,-122.01C2476.11,-122.01 2476.11,-151.85 2476.11,-151.85"/>
<polygon fill="black" stroke="black" points="2472.61,-151.85 2476.11,-161.85 2479.61,-151.85 2472.61,-151.85"/>
</g>
<!-- ProjectTreeViewComponent -->
<g id="node26" class="node">
<title>ProjectTreeViewComponent</title>
<polygon fill="#ffffb3" stroke="black" points="2306.45,-122 2129.55,-122 2129.55,-86 2306.45,-86 2306.45,-122"/>
<text text-anchor="middle" x="2218" y="-99.8" font-family="Times,serif" font-size="14.00">ProjectTreeViewComponent</text>
</g>
<!-- ProjectTreeViewComponent&#45;&gt;ProjectsModule -->
<g id="edge26" class="edge">
<title>ProjectTreeViewComponent&#45;&gt;ProjectsModule</title>
<path fill="none" stroke="black" d="M2218,-122.03C2218,-141.58 2218,-170 2218,-170 2218,-170 2444.66,-170 2444.66,-170"/>
<polygon fill="black" stroke="black" points="2444.66,-173.5 2454.66,-170 2444.66,-166.5 2444.66,-173.5"/>
</g>
<!-- ProjectViewComponent -->
<g id="node27" class="node">
<title>ProjectViewComponent</title>
<polygon fill="#ffffb3" stroke="black" points="2111.8,-122 1960.2,-122 1960.2,-86 2111.8,-86 2111.8,-122"/>
<text text-anchor="middle" x="2036" y="-99.8" font-family="Times,serif" font-size="14.00">ProjectViewComponent</text>
</g>
<!-- ProjectViewComponent&#45;&gt;ProjectsModule -->
<g id="edge27" class="edge">
<title>ProjectViewComponent&#45;&gt;ProjectsModule</title>
<path fill="none" stroke="black" d="M2036,-122.04C2036,-143.66 2036,-177 2036,-177 2036,-177 2444.8,-177 2444.8,-177"/>
<polygon fill="black" stroke="black" points="2444.8,-180.5 2454.8,-177 2444.8,-173.5 2444.8,-180.5"/>
</g>
<!-- ProjectRoutingModule -->
<g id="node29" class="node">
<title>ProjectRoutingModule</title>
<polygon fill="#8dd3c7" stroke="black" points="1936.32,-122 1933.32,-126 1912.32,-126 1909.32,-122 1791.68,-122 1791.68,-86 1936.32,-86 1936.32,-122"/>
<text text-anchor="middle" x="1864" y="-99.8" font-family="Times,serif" font-size="14.00">ProjectRoutingModule</text>
</g>
<!-- ProjectRoutingModule&#45;&gt;ProjectsModule -->
<g id="edge28" class="edge">
<title>ProjectRoutingModule&#45;&gt;ProjectsModule</title>
<path fill="none" stroke="black" d="M1864,-122.15C1864,-145.76 1864,-184 1864,-184 1864,-184 2444.65,-184 2444.65,-184"/>
<polygon fill="black" stroke="black" points="2444.65,-187.5 2454.65,-184 2444.65,-180.5 2444.65,-187.5"/>
</g>
<!-- ViewpointManagerComponent -->
<g id="node30" class="node">
<title>ViewpointManagerComponent</title>
<polygon fill="#8dd3c7" stroke="black" points="1774.18,-122 1771.18,-126 1750.18,-126 1747.18,-122 1583.82,-122 1583.82,-86 1774.18,-86 1774.18,-122"/>
<text text-anchor="middle" x="1679" y="-99.8" font-family="Times,serif" font-size="14.00">ViewpointManagerComponent</text>
</g>
<!-- ViewpointManagerComponent&#45;&gt;ProjectsModule -->
<g id="edge29" class="edge">
<title>ViewpointManagerComponent&#45;&gt;ProjectsModule</title>
<path fill="none" stroke="black" d="M1679,-122.03C1679,-147.51 1679,-191 1679,-191 1679,-191 2444.58,-191 2444.58,-191"/>
<polygon fill="black" stroke="black" points="2444.58,-194.5 2454.58,-191 2444.58,-187.5 2444.58,-194.5"/>
</g>
</g>
</svg>
