<?xml version="1.0" encoding="UTF-8" standalone="no"?>
<!DOCTYPE svg PUBLIC "-//W3C//DTD SVG 1.1//EN"
 "http://www.w3.org/Graphics/SVG/1.1/DTD/svg11.dtd">
<!-- Generated by graphviz version 2.47.0 (20210316.0004)
 -->
<!-- Title: dependencies Pages: 1 -->
<svg width="1957pt" height="211pt"
 viewBox="0.00 0.00 1957.00 211.00" xmlns="http://www.w3.org/2000/svg" xmlns:xlink="http://www.w3.org/1999/xlink">
<g id="graph0" class="graph" transform="scale(1 1) rotate(0) translate(4 207)">
<title>dependencies</title>
<polygon fill="white" stroke="transparent" points="-4,4 -4,-207 1953,-207 1953,4 -4,4"/>
<text text-anchor="start" x="953.51" y="-42.4" font-family="Times-12" font-weight="bold" font-size="14.00">Legend</text>
<polygon fill="#ffffb3" stroke="transparent" points="740.5,-10 740.5,-30 760.5,-30 760.5,-10 740.5,-10"/>
<text text-anchor="start" x="764.13" y="-15.4" font-family="Times-12" font-size="14.00"> &#160;Declarations</text>
<polygon fill="#8dd3c7" stroke="transparent" points="853.5,-10 853.5,-30 873.5,-30 873.5,-10 853.5,-10"/>
<text text-anchor="start" x="877.23" y="-15.4" font-family="Times-12" font-size="14.00"> &#160;Module</text>
<polygon fill="#80b1d3" stroke="transparent" points="939.5,-10 939.5,-30 959.5,-30 959.5,-10 939.5,-10"/>
<text text-anchor="start" x="963.28" y="-15.4" font-family="Times-12" font-size="14.00"> &#160;Bootstrap</text>
<polygon fill="#fdb462" stroke="transparent" points="1036.5,-10 1036.5,-30 1056.5,-30 1056.5,-10 1036.5,-10"/>
<text text-anchor="start" x="1060.17" y="-15.4" font-family="Times-12" font-size="14.00"> &#160;Providers</text>
<polygon fill="#fb8072" stroke="transparent" points="1132.5,-10 1132.5,-30 1152.5,-30 1152.5,-10 1132.5,-10"/>
<text text-anchor="start" x="1156.23" y="-15.4" font-family="Times-12" font-size="14.00"> &#160;Exports</text>
<g id="clust1" class="cluster">
<title>cluster_ProjectsModule</title>
<polygon fill="none" stroke="black" stroke-dasharray="1,5" points="8,-70 8,-195 1941,-195 1941,-70 8,-70"/>
</g>
<g id="clust2" class="cluster">
<title>cluster_ProjectsModule_declarations</title>
<polygon fill="none" stroke="black" points="392,-78 392,-130 1933,-130 1933,-78 392,-78"/>
</g>
<g id="clust11" class="cluster">
<title>cluster_ProjectsModule_imports</title>
<polygon fill="none" stroke="black" points="16,-78 16,-130 384,-130 384,-78 16,-78"/>
</g>
<!-- CreateProjectComponent -->
<g id="node1" class="node">
<title>CreateProjectComponent</title>
<polygon fill="#ffffb3" stroke="black" points="1924.52,-122 1767.48,-122 1767.48,-86 1924.52,-86 1924.52,-122"/>
<text text-anchor="middle" x="1846" y="-99.8" font-family="Times,serif" font-size="14.00">CreateProjectComponent</text>
</g>
<!-- ProjectsModule -->
<g id="node9" class="node">
<title>ProjectsModule</title>
<polygon fill="#8dd3c7" stroke="black" points="999.15,-187 996.15,-191 975.15,-191 972.15,-187 894.85,-187 894.85,-151 999.15,-151 999.15,-187"/>
<text text-anchor="middle" x="947" y="-164.8" font-family="Times,serif" font-size="14.00">ProjectsModule</text>
</g>
<!-- CreateProjectComponent&#45;&gt;ProjectsModule -->
<g id="edge1" class="edge">
<title>CreateProjectComponent&#45;&gt;ProjectsModule</title>
<path fill="none" stroke="black" d="M1846,-122.01C1846,-144.49 1846,-180 1846,-180 1846,-180 1009.22,-180 1009.22,-180"/>
<polygon fill="black" stroke="black" points="1009.22,-176.5 999.22,-180 1009.22,-183.5 1009.22,-176.5"/>
</g>
<!-- ProjectConfigViewComponent -->
<g id="node2" class="node">
<title>ProjectConfigViewComponent</title>
<polygon fill="#ffffb3" stroke="black" points="1749.19,-122 1558.81,-122 1558.81,-86 1749.19,-86 1749.19,-122"/>
<text text-anchor="middle" x="1654" y="-99.8" font-family="Times,serif" font-size="14.00">ProjectConfigViewComponent</text>
</g>
<!-- ProjectConfigViewComponent&#45;&gt;ProjectsModule -->
<g id="edge2" class="edge">
<title>ProjectConfigViewComponent&#45;&gt;ProjectsModule</title>
<path fill="none" stroke="black" d="M1654,-122.13C1654,-142.57 1654,-173 1654,-173 1654,-173 1009.27,-173 1009.27,-173"/>
<polygon fill="black" stroke="black" points="1009.27,-169.5 999.27,-173 1009.27,-176.5 1009.27,-169.5"/>
</g>
<!-- ProjectDashboardComponent -->
<g id="node3" class="node">
<title>ProjectDashboardComponent</title>
<polygon fill="#ffffb3" stroke="black" points="1540.63,-122 1359.37,-122 1359.37,-86 1540.63,-86 1540.63,-122"/>
<text text-anchor="middle" x="1450" y="-99.8" font-family="Times,serif" font-size="14.00">ProjectDashboardComponent</text>
</g>
<!-- ProjectDashboardComponent&#45;&gt;ProjectsModule -->
<g id="edge3" class="edge">
<title>ProjectDashboardComponent&#45;&gt;ProjectsModule</title>
<path fill="none" stroke="black" d="M1450,-122.27C1450,-140.56 1450,-166 1450,-166 1450,-166 1009.41,-166 1009.41,-166"/>
<polygon fill="black" stroke="black" points="1009.41,-162.5 999.41,-166 1009.41,-169.5 1009.41,-162.5"/>
</g>
<!-- ProjectItemOptionsComponent -->
<g id="node4" class="node">
<title>ProjectItemOptionsComponent</title>
<polygon fill="#ffffb3" stroke="black" points="1341.47,-122 1150.53,-122 1150.53,-86 1341.47,-86 1341.47,-122"/>
<text text-anchor="middle" x="1246" y="-99.8" font-family="Times,serif" font-size="14.00">ProjectItemOptionsComponent</text>
</g>
<!-- ProjectItemOptionsComponent&#45;&gt;ProjectsModule -->
<g id="edge4" class="edge">
<title>ProjectItemOptionsComponent&#45;&gt;ProjectsModule</title>
<path fill="none" stroke="black" d="M1246,-122.01C1246,-138.05 1246,-159 1246,-159 1246,-159 1009.42,-159 1009.42,-159"/>
<polygon fill="black" stroke="black" points="1009.42,-155.5 999.42,-159 1009.42,-162.5 1009.42,-155.5"/>
</g>
<!-- ProjectItemViewComponent -->
<g id="node5" class="node">
<title>ProjectItemViewComponent</title>
<polygon fill="#ffffb3" stroke="black" points="1132.46,-122 955.54,-122 955.54,-86 1132.46,-86 1132.46,-122"/>
<text text-anchor="middle" x="1044" y="-99.8" font-family="Times,serif" font-size="14.00">ProjectItemViewComponent</text>
</g>
<!-- ProjectItemViewComponent&#45;&gt;ProjectsModule -->
<g id="edge5" class="edge">
<title>ProjectItemViewComponent&#45;&gt;ProjectsModule</title>
<path fill="none" stroke="black" d="M977.42,-122.11C977.42,-122.11 977.42,-140.99 977.42,-140.99"/>
<polygon fill="black" stroke="black" points="973.92,-140.99 977.42,-150.99 980.92,-140.99 973.92,-140.99"/>
</g>
<!-- ProjectListViewComponent -->
<g id="node6" class="node">
<title>ProjectListViewComponent</title>
<polygon fill="#ffffb3" stroke="black" points="937.58,-122 764.42,-122 764.42,-86 937.58,-86 937.58,-122"/>
<text text-anchor="middle" x="851" y="-99.8" font-family="Times,serif" font-size="14.00">ProjectListViewComponent</text>
</g>
<!-- ProjectListViewComponent&#45;&gt;ProjectsModule -->
<g id="edge6" class="edge">
<title>ProjectListViewComponent&#45;&gt;ProjectsModule</title>
<path fill="none" stroke="black" d="M916.11,-122.11C916.11,-122.11 916.11,-140.99 916.11,-140.99"/>
<polygon fill="black" stroke="black" points="912.61,-140.99 916.11,-150.99 919.61,-140.99 912.61,-140.99"/>
</g>
<!-- ProjectTreeViewComponent -->
<g id="node7" class="node">
<title>ProjectTreeViewComponent</title>
<polygon fill="#ffffb3" stroke="black" points="746.45,-122 569.55,-122 569.55,-86 746.45,-86 746.45,-122"/>
<text text-anchor="middle" x="658" y="-99.8" font-family="Times,serif" font-size="14.00">ProjectTreeViewComponent</text>
</g>
<!-- ProjectTreeViewComponent&#45;&gt;ProjectsModule -->
<g id="edge7" class="edge">
<title>ProjectTreeViewComponent&#45;&gt;ProjectsModule</title>
<path fill="none" stroke="black" d="M658,-122.01C658,-138.05 658,-159 658,-159 658,-159 884.66,-159 884.66,-159"/>
<polygon fill="black" stroke="black" points="884.66,-162.5 894.66,-159 884.66,-155.5 884.66,-162.5"/>
</g>
<!-- ProjectViewComponent -->
<g id="node8" class="node">
<title>ProjectViewComponent</title>
<polygon fill="#ffffb3" stroke="black" points="551.8,-122 400.2,-122 400.2,-86 551.8,-86 551.8,-122"/>
<text text-anchor="middle" x="476" y="-99.8" font-family="Times,serif" font-size="14.00">ProjectViewComponent</text>
</g>
<!-- ProjectViewComponent&#45;&gt;ProjectsModule -->
<g id="edge8" class="edge">
<title>ProjectViewComponent&#45;&gt;ProjectsModule</title>
<path fill="none" stroke="black" d="M476,-122.27C476,-140.56 476,-166 476,-166 476,-166 884.8,-166 884.8,-166"/>
<polygon fill="black" stroke="black" points="884.8,-169.5 894.8,-166 884.8,-162.5 884.8,-169.5"/>
</g>
<!-- ProjectRoutingModule -->
<g id="node10" class="node">
<title>ProjectRoutingModule</title>
<polygon fill="#8dd3c7" stroke="black" points="376.32,-122 373.32,-126 352.32,-126 349.32,-122 231.68,-122 231.68,-86 376.32,-86 376.32,-122"/>
<text text-anchor="middle" x="304" y="-99.8" font-family="Times,serif" font-size="14.00">ProjectRoutingModule</text>
</g>
<!-- ProjectRoutingModule&#45;&gt;ProjectsModule -->
<g id="edge9" class="edge">
<title>ProjectRoutingModule&#45;&gt;ProjectsModule</title>
<path fill="none" stroke="black" d="M304,-122.13C304,-142.57 304,-173 304,-173 304,-173 884.65,-173 884.65,-173"/>
<polygon fill="black" stroke="black" points="884.65,-176.5 894.65,-173 884.65,-169.5 884.65,-176.5"/>
</g>
<!-- ViewpointManagerComponent -->
<g id="node11" class="node">
<title>ViewpointManagerComponent</title>
<polygon fill="#8dd3c7" stroke="black" points="214.18,-122 211.18,-126 190.18,-126 187.18,-122 23.82,-122 23.82,-86 214.18,-86 214.18,-122"/>
<text text-anchor="middle" x="119" y="-99.8" font-family="Times,serif" font-size="14.00">ViewpointManagerComponent</text>
</g>
<!-- ViewpointManagerComponent&#45;&gt;ProjectsModule -->
<g id="edge10" class="edge">
<title>ViewpointManagerComponent&#45;&gt;ProjectsModule</title>
<path fill="none" stroke="black" d="M119,-122.01C119,-144.49 119,-180 119,-180 119,-180 884.58,-180 884.58,-180"/>
<polygon fill="black" stroke="black" points="884.58,-183.5 894.58,-180 884.58,-176.5 884.58,-183.5"/>
</g>
</g>
</svg>
