<?xml version="1.0" encoding="UTF-8" standalone="no"?>
<!DOCTYPE svg PUBLIC "-//W3C//DTD SVG 1.1//EN"
 "http://www.w3.org/Graphics/SVG/1.1/DTD/svg11.dtd">
<!-- Generated by graphviz version 2.47.0 (20210316.0004)
 -->
<!-- Title: dependencies Pages: 1 -->
<svg width="1042pt" height="211pt"
 viewBox="0.00 0.00 1042.00 211.00" xmlns="http://www.w3.org/2000/svg" xmlns:xlink="http://www.w3.org/1999/xlink">
<g id="graph0" class="graph" transform="scale(1 1) rotate(0) translate(4 207)">
<title>dependencies</title>
<polygon fill="white" stroke="transparent" points="-4,4 -4,-207 1038,-207 1038,4 -4,4"/>
<text text-anchor="start" x="496.01" y="-42.4" font-family="Times-12" font-weight="bold" font-size="14.00">Legend</text>
<polygon fill="#ffffb3" stroke="transparent" points="283,-10 283,-30 303,-30 303,-10 283,-10"/>
<text text-anchor="start" x="306.63" y="-15.4" font-family="Times-12" font-size="14.00"> &#160;Declarations</text>
<polygon fill="#8dd3c7" stroke="transparent" points="396,-10 396,-30 416,-30 416,-10 396,-10"/>
<text text-anchor="start" x="419.73" y="-15.4" font-family="Times-12" font-size="14.00"> &#160;Module</text>
<polygon fill="#80b1d3" stroke="transparent" points="482,-10 482,-30 502,-30 502,-10 482,-10"/>
<text text-anchor="start" x="505.78" y="-15.4" font-family="Times-12" font-size="14.00"> &#160;Bootstrap</text>
<polygon fill="#fdb462" stroke="transparent" points="579,-10 579,-30 599,-30 599,-10 579,-10"/>
<text text-anchor="start" x="602.67" y="-15.4" font-family="Times-12" font-size="14.00"> &#160;Providers</text>
<polygon fill="#fb8072" stroke="transparent" points="675,-10 675,-30 695,-30 695,-10 675,-10"/>
<text text-anchor="start" x="698.73" y="-15.4" font-family="Times-12" font-size="14.00"> &#160;Exports</text>
<g id="clust1" class="cluster">
<title>cluster_DialogsModule</title>
<polygon fill="none" stroke="black" stroke-dasharray="1,5" points="8,-70 8,-195 1026,-195 1026,-70 8,-70"/>
</g>
<g id="clust2" class="cluster">
<title>cluster_DialogsModule_declarations</title>
<polygon fill="none" stroke="black" points="16,-78 16,-130 1018,-130 1018,-78 16,-78"/>
</g>
<!-- AreYouSureDialogComponent -->
<g id="node1" class="node">
<title>AreYouSureDialogComponent</title>
<polygon fill="#ffffb3" stroke="black" points="1010.18,-122 819.82,-122 819.82,-86 1010.18,-86 1010.18,-122"/>
<text text-anchor="middle" x="915" y="-99.8" font-family="Times,serif" font-size="14.00">AreYouSureDialogComponent</text>
</g>
<!-- DialogsModule -->
<g id="node6" class="node">
<title>DialogsModule</title>
<polygon fill="#8dd3c7" stroke="black" points="602.6,-187 599.6,-191 578.6,-191 575.6,-187 499.4,-187 499.4,-151 602.6,-151 602.6,-187"/>
<text text-anchor="middle" x="551" y="-164.8" font-family="Times,serif" font-size="14.00">DialogsModule</text>
</g>
<!-- AreYouSureDialogComponent&#45;&gt;DialogsModule -->
<g id="edge1" class="edge">
<title>AreYouSureDialogComponent&#45;&gt;DialogsModule</title>
<path fill="none" stroke="black" d="M915,-122.28C915,-143.32 915,-175 915,-175 915,-175 612.77,-175 612.77,-175"/>
<polygon fill="black" stroke="black" points="612.77,-171.5 602.77,-175 612.77,-178.5 612.77,-171.5"/>
</g>
<!-- IssueDetailDialogComponent -->
<g id="node2" class="node">
<title>IssueDetailDialogComponent</title>
<polygon fill="#ffffb3" stroke="black" points="802.41,-122 619.59,-122 619.59,-86 802.41,-86 802.41,-122"/>
<text text-anchor="middle" x="711" y="-99.8" font-family="Times,serif" font-size="14.00">IssueDetailDialogComponent</text>
</g>
<!-- IssueDetailDialogComponent&#45;&gt;DialogsModule -->
<g id="edge2" class="edge">
<title>IssueDetailDialogComponent&#45;&gt;DialogsModule</title>
<path fill="none" stroke="black" d="M711,-122.02C711,-139.37 711,-163 711,-163 711,-163 612.95,-163 612.95,-163"/>
<polygon fill="black" stroke="black" points="612.95,-159.5 602.95,-163 612.95,-166.5 612.95,-159.5"/>
</g>
<!-- MarkdownPipe -->
<g id="node3" class="node">
<title>MarkdownPipe</title>
<polygon fill="#ffffb3" stroke="black" points="602.31,-122 499.69,-122 499.69,-86 602.31,-86 602.31,-122"/>
<text text-anchor="middle" x="551" y="-99.8" font-family="Times,serif" font-size="14.00">MarkdownPipe</text>
</g>
<!-- MarkdownPipe&#45;&gt;DialogsModule -->
<g id="edge3" class="edge">
<title>MarkdownPipe&#45;&gt;DialogsModule</title>
<path fill="none" stroke="black" d="M551,-122.11C551,-122.11 551,-140.99 551,-140.99"/>
<polygon fill="black" stroke="black" points="547.5,-140.99 551,-150.99 554.5,-140.99 547.5,-140.99"/>
</g>
<!-- NodeBacklogDetailDialogComponent -->
<g id="node4" class="node">
<title>NodeBacklogDetailDialogComponent</title>
<polygon fill="#ffffb3" stroke="black" points="482.12,-122 251.88,-122 251.88,-86 482.12,-86 482.12,-122"/>
<text text-anchor="middle" x="367" y="-99.8" font-family="Times,serif" font-size="14.00">NodeBacklogDetailDialogComponent</text>
</g>
<!-- NodeBacklogDetailDialogComponent&#45;&gt;DialogsModule -->
<g id="edge4" class="edge">
<title>NodeBacklogDetailDialogComponent&#45;&gt;DialogsModule</title>
<path fill="none" stroke="black" d="M367,-122.02C367,-139.37 367,-163 367,-163 367,-163 489.26,-163 489.26,-163"/>
<polygon fill="black" stroke="black" points="489.26,-166.5 499.26,-163 489.26,-159.5 489.26,-166.5"/>
</g>
<!-- NodeTreeDetailDialogComponent -->
<g id="node5" class="node">
<title>NodeTreeDetailDialogComponent</title>
<polygon fill="#ffffb3" stroke="black" points="233.61,-122 24.39,-122 24.39,-86 233.61,-86 233.61,-122"/>
<text text-anchor="middle" x="129" y="-99.8" font-family="Times,serif" font-size="14.00">NodeTreeDetailDialogComponent</text>
</g>
<!-- NodeTreeDetailDialogComponent&#45;&gt;DialogsModule -->
<g id="edge5" class="edge">
<title>NodeTreeDetailDialogComponent&#45;&gt;DialogsModule</title>
<path fill="none" stroke="black" d="M129,-122.28C129,-143.32 129,-175 129,-175 129,-175 489.25,-175 489.25,-175"/>
<polygon fill="black" stroke="black" points="489.25,-178.5 499.25,-175 489.25,-171.5 489.25,-178.5"/>
</g>
</g>
</svg>
