<?xml version="1.0" encoding="UTF-8" standalone="no"?>
<!DOCTYPE svg PUBLIC "-//W3C//DTD SVG 1.1//EN"
 "http://www.w3.org/Graphics/SVG/1.1/DTD/svg11.dtd">
<!-- Generated by graphviz version 2.47.0 (20210316.0004)
 -->
<!-- Title: dependencies Pages: 1 -->
<svg width="1533pt" height="284pt"
 viewBox="0.00 0.00 1533.00 284.00" xmlns="http://www.w3.org/2000/svg" xmlns:xlink="http://www.w3.org/1999/xlink">
<g id="graph0" class="graph" transform="scale(1 1) rotate(0) translate(4 280)">
<title>dependencies</title>
<polygon fill="white" stroke="transparent" points="-4,4 -4,-280 1529,-280 1529,4 -4,4"/>
<text text-anchor="start" x="741.51" y="-42.4" font-family="Times-12" font-weight="bold" font-size="14.00">Legend</text>
<polygon fill="#ffffb3" stroke="transparent" points="528.5,-10 528.5,-30 548.5,-30 548.5,-10 528.5,-10"/>
<text text-anchor="start" x="552.13" y="-15.4" font-family="Times-12" font-size="14.00"> &#160;Declarations</text>
<polygon fill="#8dd3c7" stroke="transparent" points="641.5,-10 641.5,-30 661.5,-30 661.5,-10 641.5,-10"/>
<text text-anchor="start" x="665.23" y="-15.4" font-family="Times-12" font-size="14.00"> &#160;Module</text>
<polygon fill="#80b1d3" stroke="transparent" points="727.5,-10 727.5,-30 747.5,-30 747.5,-10 727.5,-10"/>
<text text-anchor="start" x="751.28" y="-15.4" font-family="Times-12" font-size="14.00"> &#160;Bootstrap</text>
<polygon fill="#fdb462" stroke="transparent" points="824.5,-10 824.5,-30 844.5,-30 844.5,-10 824.5,-10"/>
<text text-anchor="start" x="848.17" y="-15.4" font-family="Times-12" font-size="14.00"> &#160;Providers</text>
<polygon fill="#fb8072" stroke="transparent" points="920.5,-10 920.5,-30 940.5,-30 940.5,-10 920.5,-10"/>
<text text-anchor="start" x="944.23" y="-15.4" font-family="Times-12" font-size="14.00"> &#160;Exports</text>
<g id="clust1" class="cluster">
<title>cluster_AppModule</title>
<polygon fill="none" stroke="black" stroke-dasharray="1,5" points="8,-70 8,-268 1517,-268 1517,-70 8,-70"/>
</g>
<g id="clust2" class="cluster">
<title>cluster_AppModule_declarations</title>
<polygon fill="none" stroke="black" points="1059,-78 1059,-130 1509,-130 1509,-78 1059,-78"/>
</g>
<g id="clust9" class="cluster">
<title>cluster_AppModule_providers</title>
<polygon fill="none" stroke="black" points="589,-78 589,-130 1051,-130 1051,-78 589,-78"/>
</g>
<g id="clust6" class="cluster">
<title>cluster_AppModule_imports</title>
<polygon fill="none" stroke="black" points="16,-78 16,-130 581,-130 581,-78 16,-78"/>
</g>
<g id="clust8" class="cluster">
<title>cluster_AppModule_bootstrap</title>
<polygon fill="none" stroke="black" points="684,-208 684,-260 808,-260 808,-208 684,-208"/>
</g>
<!-- AppComponent -->
<g id="node1" class="node">
<title>AppComponent</title>
<polygon fill="#ffffb3" stroke="black" points="1500.94,-122 1395.06,-122 1395.06,-86 1500.94,-86 1500.94,-122"/>
<text text-anchor="middle" x="1448" y="-99.8" font-family="Times,serif" font-size="14.00">AppComponent</text>
</g>
<!-- AppModule -->
<g id="node4" class="node">
<title>AppModule</title>
<polygon fill="#8dd3c7" stroke="black" points="787.66,-187 784.66,-191 763.66,-191 760.66,-187 704.34,-187 704.34,-151 787.66,-151 787.66,-187"/>
<text text-anchor="middle" x="746" y="-164.8" font-family="Times,serif" font-size="14.00">AppModule</text>
</g>
<!-- AppComponent&#45;&gt;AppModule -->
<g id="edge1" class="edge">
<title>AppComponent&#45;&gt;AppModule</title>
<path fill="none" stroke="black" d="M1448,-122.01C1448,-144.49 1448,-180 1448,-180 1448,-180 797.81,-180 797.81,-180"/>
<polygon fill="black" stroke="black" points="797.81,-176.5 787.81,-180 797.81,-183.5 797.81,-176.5"/>
</g>
<!-- ProjectSearchComponent -->
<g id="node2" class="node">
<title>ProjectSearchComponent</title>
<polygon fill="#ffffb3" stroke="black" points="1377.57,-122 1218.43,-122 1218.43,-86 1377.57,-86 1377.57,-122"/>
<text text-anchor="middle" x="1298" y="-99.8" font-family="Times,serif" font-size="14.00">ProjectSearchComponent</text>
</g>
<!-- ProjectSearchComponent&#45;&gt;AppModule -->
<g id="edge2" class="edge">
<title>ProjectSearchComponent&#45;&gt;AppModule</title>
<path fill="none" stroke="black" d="M1298,-122.13C1298,-142.57 1298,-173 1298,-173 1298,-173 797.94,-173 797.94,-173"/>
<polygon fill="black" stroke="black" points="797.94,-169.5 787.94,-173 797.94,-176.5 797.94,-169.5"/>
</g>
<!-- SnackbarComponent -->
<g id="node3" class="node">
<title>SnackbarComponent</title>
<polygon fill="#ffffb3" stroke="black" points="1200.92,-122 1067.08,-122 1067.08,-86 1200.92,-86 1200.92,-122"/>
<text text-anchor="middle" x="1134" y="-99.8" font-family="Times,serif" font-size="14.00">SnackbarComponent</text>
</g>
<!-- SnackbarComponent&#45;&gt;AppModule -->
<g id="edge3" class="edge">
<title>SnackbarComponent&#45;&gt;AppModule</title>
<path fill="none" stroke="black" d="M1134,-122.27C1134,-140.56 1134,-166 1134,-166 1134,-166 797.89,-166 797.89,-166"/>
<polygon fill="black" stroke="black" points="797.89,-162.5 787.89,-166 797.89,-169.5 797.89,-162.5"/>
</g>
<!-- AppComponent  -->
<g id="node9" class="node">
<title>AppComponent </title>
<polygon fill="#80b1d3" stroke="black" points="800.44,-252 691.56,-252 691.56,-216 800.44,-216 800.44,-252"/>
<text text-anchor="middle" x="746" y="-229.8" font-family="Times,serif" font-size="14.00">AppComponent </text>
</g>
<!-- AppModule&#45;&gt;AppComponent  -->
<g id="edge8" class="edge">
<title>AppModule&#45;&gt;AppComponent </title>
<path fill="none" stroke="black" stroke-dasharray="1,5" d="M746,-187.11C746,-187.11 746,-205.99 746,-205.99"/>
<polygon fill="black" stroke="black" points="742.5,-205.99 746,-215.99 749.5,-205.99 742.5,-205.99"/>
</g>
<!-- AppRoutingModule -->
<g id="node5" class="node">
<title>AppRoutingModule</title>
<polygon fill="#8dd3c7" stroke="black" points="573.27,-122 570.27,-126 549.27,-126 546.27,-122 444.73,-122 444.73,-86 573.27,-86 573.27,-122"/>
<text text-anchor="middle" x="509" y="-99.8" font-family="Times,serif" font-size="14.00">AppRoutingModule</text>
</g>
<!-- AppRoutingModule&#45;&gt;AppModule -->
<g id="edge4" class="edge">
<title>AppRoutingModule&#45;&gt;AppModule</title>
<path fill="none" stroke="black" d="M509,-122.01C509,-138.05 509,-159 509,-159 509,-159 694.17,-159 694.17,-159"/>
<polygon fill="black" stroke="black" points="694.17,-162.5 704.17,-159 694.17,-155.5 694.17,-162.5"/>
</g>
<!-- AuthenticationModule -->
<g id="node6" class="node">
<title>AuthenticationModule</title>
<polygon fill="#8dd3c7" stroke="black" points="426.25,-122 423.25,-126 402.25,-126 399.25,-122 283.75,-122 283.75,-86 426.25,-86 426.25,-122"/>
<text text-anchor="middle" x="355" y="-99.8" font-family="Times,serif" font-size="14.00">AuthenticationModule</text>
</g>
<!-- AuthenticationModule&#45;&gt;AppModule -->
<g id="edge5" class="edge">
<title>AuthenticationModule&#45;&gt;AppModule</title>
<path fill="none" stroke="black" d="M355,-122.27C355,-140.56 355,-166 355,-166 355,-166 694.16,-166 694.16,-166"/>
<polygon fill="black" stroke="black" points="694.16,-169.5 704.16,-166 694.16,-162.5 694.16,-169.5"/>
</g>
<!-- DashboardModule -->
<g id="node7" class="node">
<title>DashboardModule</title>
<polygon fill="#8dd3c7" stroke="black" points="266.19,-122 263.19,-126 242.19,-126 239.19,-122 145.81,-122 145.81,-86 266.19,-86 266.19,-122"/>
<text text-anchor="middle" x="206" y="-99.8" font-family="Times,serif" font-size="14.00">DashboardModule</text>
</g>
<!-- DashboardModule&#45;&gt;AppModule -->
<g id="edge6" class="edge">
<title>DashboardModule&#45;&gt;AppModule</title>
<path fill="none" stroke="black" d="M206,-122.13C206,-142.57 206,-173 206,-173 206,-173 694.08,-173 694.08,-173"/>
<polygon fill="black" stroke="black" points="694.08,-176.5 704.08,-173 694.08,-169.5 694.08,-176.5"/>
</g>
<!-- DialogsModule -->
<g id="node8" class="node">
<title>DialogsModule</title>
<polygon fill="#8dd3c7" stroke="black" points="127.6,-122 124.6,-126 103.6,-126 100.6,-122 24.4,-122 24.4,-86 127.6,-86 127.6,-122"/>
<text text-anchor="middle" x="76" y="-99.8" font-family="Times,serif" font-size="14.00">DialogsModule</text>
</g>
<!-- DialogsModule&#45;&gt;AppModule -->
<g id="edge7" class="edge">
<title>DialogsModule&#45;&gt;AppModule</title>
<path fill="none" stroke="black" d="M76,-122.01C76,-144.49 76,-180 76,-180 76,-180 694.34,-180 694.34,-180"/>
<polygon fill="black" stroke="black" points="694.34,-183.5 704.34,-180 694.34,-176.5 694.34,-183.5"/>
</g>
<!-- AuthInterceptor -->
<g id="node10" class="node">
<title>AuthInterceptor</title>
<ellipse fill="#fdb462" stroke="black" cx="970" cy="-104" rx="72.91" ry="18"/>
<text text-anchor="middle" x="970" y="-99.8" font-family="Times,serif" font-size="14.00">AuthInterceptor</text>
</g>
<!-- AuthInterceptor&#45;&gt;AppModule -->
<g id="edge9" class="edge">
<title>AuthInterceptor&#45;&gt;AppModule</title>
<path fill="none" stroke="black" d="M970,-122.01C970,-138.05 970,-159 970,-159 970,-159 797.87,-159 797.87,-159"/>
<polygon fill="black" stroke="black" points="797.87,-155.5 787.87,-159 797.87,-162.5 797.87,-155.5"/>
</g>
<!-- DataService -->
<g id="node11" class="node">
<title>DataService</title>
<ellipse fill="#fdb462" stroke="black" cx="821" cy="-104" rx="58.44" ry="18"/>
<text text-anchor="middle" x="821" y="-99.8" font-family="Times,serif" font-size="14.00">DataService</text>
</g>
<!-- DataService&#45;&gt;AppModule -->
<g id="edge10" class="edge">
<title>DataService&#45;&gt;AppModule</title>
<path fill="none" stroke="black" d="M775.3,-115.32C775.3,-115.32 775.3,-140.94 775.3,-140.94"/>
<polygon fill="black" stroke="black" points="771.8,-140.94 775.3,-150.94 778.8,-140.94 771.8,-140.94"/>
</g>
<!-- ErrorInterceptor -->
<g id="node12" class="node">
<title>ErrorInterceptor</title>
<ellipse fill="#fdb462" stroke="black" cx="671" cy="-104" rx="73.53" ry="18"/>
<text text-anchor="middle" x="671" y="-99.8" font-family="Times,serif" font-size="14.00">ErrorInterceptor</text>
</g>
<!-- ErrorInterceptor&#45;&gt;AppModule -->
<g id="edge11" class="edge">
<title>ErrorInterceptor&#45;&gt;AppModule</title>
<path fill="none" stroke="black" d="M724.47,-116.53C724.47,-116.53 724.47,-140.85 724.47,-140.85"/>
<polygon fill="black" stroke="black" points="720.97,-140.85 724.47,-150.85 727.97,-140.85 720.97,-140.85"/>
</g>
</g>
</svg>
